<svg id="Layer_1" enable-background="new 0 0 512 512" height="512" viewBox="0 0 512 512" width="512" xmlns="http://www.w3.org/2000/svg"><g><g><path d="m430.213 335.363c-53.078 0-176.237-38.768-230.855-87.113-20.144-17.83-30.358-36.193-30.358-54.578 0-40.804 33.196-74 74-74 6.994 0 13.895.981 20.521 2.891 10.02-29.137 37.635-49.829 69.979-49.829 26.73 0 51.181 14.536 64.21 37.205 2.089-.177 4.188-.266 6.29-.266 40.804 0 74 33.196 74 74 0 4.799-.455 9.536-1.358 14.179 21.588 13.289 35.358 37.189 35.358 63.101 0 19.443-7.825 37.593-22.034 51.105-12.957 12.322-30.765 20.414-50.145 22.784-2.865.35-6.084.521-9.608.521z" fill="#eee1dc"/></g><path d="m476.642 197.851c.903-4.644 1.358-9.38 1.358-14.179 0-40.804-33.196-74-74-74-2.103 0-4.201.089-6.29.266-11.882-20.673-33.264-34.576-57.21-36.865v245.167c35.258 10.769 68.227 17.123 89.713 17.123 3.524 0 6.743-.171 9.608-.521 19.38-2.37 37.188-10.461 50.145-22.784 14.209-13.513 22.034-31.662 22.034-51.105 0-25.912-13.77-49.812-35.358-63.102z" fill="#e0d2cd"/><g><path d="m213.132 439.267c-17.088 0-33.811-5.901-47.086-16.617-6.865-5.541-12.676-12.251-17.186-19.735-9.734 5.94-21.034 9.222-32.667 9.222-27.949 0-52.022-18.594-59.934-44.321-12.9-1.336-25.2-6.649-35.083-15.379-13.457-11.887-21.176-29.006-21.176-46.968 0-32.457 24.797-59.23 56.439-62.375 3.25-10.25 9.118-19.556 17.165-27.011 11.618-10.764 26.743-16.691 42.589-16.691 11.524 0 22.731 3.226 32.409 9.067 4.496-7.577 10.322-14.376 17.228-19.993 13.314-10.83 30.114-16.794 47.303-16.794s33.989 5.964 47.303 16.794c6.906 5.617 12.731 12.417 17.228 19.993 9.678-5.84 20.885-9.067 32.409-9.067 15.846 0 30.971 5.928 42.589 16.691 8.05 7.458 13.919 16.766 17.168 27.021 12.956 1.305 25.313 6.62 35.239 15.379 13.472 11.888 21.198 29.014 21.198 46.986 0 17.962-7.719 35.081-21.177 46.968-9.882 8.729-22.183 14.042-35.083 15.378-7.912 25.727-31.986 44.321-59.934 44.321-11.633 0-22.934-3.283-32.667-9.222-4.51 7.484-10.321 14.194-17.186 19.735-13.277 10.716-29.999 16.618-47.088 16.618z" fill="#fff4f4"/></g><path d="m405.067 258.483c-9.926-8.759-22.283-14.074-35.239-15.379-3.249-10.255-9.118-19.563-17.168-27.021-11.618-10.764-26.743-16.691-42.589-16.691-11.523 0-22.731 3.227-32.409 9.067-4.496-7.577-10.321-14.376-17.228-19.993-13.314-10.83-30.114-16.794-47.303-16.794v267.595c17.088 0 33.811-5.901 47.086-16.617 6.865-5.541 12.676-12.251 17.186-19.735 9.733 5.939 21.034 9.222 32.667 9.222 27.948 0 52.022-18.594 59.934-44.321 12.899-1.336 25.2-6.65 35.083-15.378 13.458-11.887 21.177-29.006 21.177-46.968.001-17.973-7.725-35.099-21.197-46.987z" fill="#f6efea"/></g></svg>