<svg id="Layer_1" enable-background="new 0 0 512 512" height="512" viewBox="0 0 512 512" width="512" xmlns="http://www.w3.org/2000/svg"><g><g><path d="m256 448c-80.216 0-149.1-49.447-177.773-119.462-9.17-22.391 57.582-55.692 57.582-81.345 0-39.086-60.069-66.675-39.93-97.039 34.409-51.881 93.338-86.154 160.121-86.154 105.869 0 192 86.131 192 192 0 36.865-75.916 47.512-94 76.787-22.188 35.919 9.594 87.84-30.42 102.936-21.03 7.934-43.807 12.277-67.58 12.277z" fill="#7dd5f4"/></g><path d="m256 64v384c23.773 0 46.55-4.343 67.58-12.277 40.014-15.096 8.232-67.017 30.42-102.936 18.084-29.275 94-39.922 94-76.787 0-105.869-86.131-192-192-192z" fill="#4793ff"/><path d="m320.384 302.903c0 2.182.13 4.383.385 6.542 1.219 10.301-4.138 19.635-13.645 23.78-20.385 8.889-33.557 28.945-33.557 51.097 0 21.31 12.476 41.048 31.783 50.285 1.205.576 2.482.989 3.797 1.228l9.383 1.702c75.262-25.997 129.47-97.551 129.47-181.537 0-2.952-.077-5.886-.21-8.807h-71.696c-30.719 0-55.71 24.992-55.71 55.71z" fill="#00cb75"/><path d="m229.02 150.161h-133.131c-20.139 30.364-31.889 66.753-31.889 105.839 0 31.297 7.531 60.868 20.87 87h62.052c29.388 0 53.813-22.974 55.605-52.302.966-15.809 13.622-28.359 29.439-29.194 29.587-1.563 52.763-25.999 52.763-55.633 0-30.719-24.991-55.71-55.709-55.71z" fill="#bee75e"/><g><path d="m326.997 241c-1.933 0-3.882-.373-5.737-1.142-5.605-2.322-9.26-7.792-9.26-13.858v-196c0-16.542 13.458-30 30-30h140c16.542 0 30 13.458 30 30v140c0 16.542-13.458 30-30 30h-107.787l-36.606 36.606c-2.87 2.87-6.707 4.394-10.61 4.394z" fill="#f6efea"/></g><g><path d="m180 512h-150c-16.542 0-30-13.458-30-30v-140c0-16.542 13.458-30 30-30h102.787l51.606-51.606c4.29-4.289 10.744-5.571 16.347-3.252 5.605 2.322 9.26 7.792 9.26 13.858v211c0 16.542-13.458 30-30 30z" fill="#fff4f4"/></g><g><path d="m412 158c-3.839 0-7.678-1.464-10.606-4.393l-8.201-8.201h-11.598c-8.284 0-15-6.716-15-15v-11.599l-8.201-8.201c-2.814-2.812-4.394-6.628-4.394-10.606 0-3.979 1.581-7.794 4.394-10.607l8.201-8.2v-11.598c0-8.284 6.716-15 15-15h11.598l8.201-8.201c5.857-5.857 15.355-5.857 21.213 0l8.201 8.201h11.598c8.284 0 15 6.716 15 15v11.598l8.201 8.2c2.812 2.813 4.393 6.628 4.393 10.607 0 3.978-1.58 7.794-4.394 10.606l-8.201 8.201v11.599c0 8.284-6.716 15-15 15h-11.598l-8.201 8.201c-2.928 2.929-6.767 4.393-10.606 4.393zm-30.405-70.594h.01z" fill="#ff8856"/></g><path d="m157 412c0-8.284-6.716-15-15-15h-.787l.557-.557c5.858-5.857 5.858-15.355 0-21.213-5.857-5.857-15.355-5.857-21.213 0l-.557.557v-1.232c0-8.284-6.716-15-15-15s-15 6.716-15 15v1.232l-.872-.872c-5.857-5.857-15.355-5.857-21.213 0s-5.858 15.355 0 21.213l.872.872h-.787c-8.284 0-15 6.716-15 15s6.716 15 15 15h.787l-.557.557c-5.858 5.857-5.858 15.355 0 21.213 2.929 2.929 6.768 4.394 10.606 4.394s7.678-1.465 10.606-4.394l.558-.557v1.233c0 8.284 6.716 15 15 15s15-6.716 15-15v-1.233l.871.871c2.929 2.929 6.768 4.394 10.606 4.394s7.678-1.465 10.606-4.394c5.858-5.857 5.858-15.355 0-21.213l-.87-.871h.787c8.284 0 15-6.716 15-15z" fill="#4793ff"/><path d="m256 157.153v97.459c17.185-9.525 28.729-27.833 28.729-48.741 0-20.935-11.612-39.201-28.729-48.718z" fill="#00cb75"/></g></svg>