<svg id="Layer_1" enable-background="new 0 0 512.5 512.5" height="512" viewBox="0 0 512.5 512.5" width="512" xmlns="http://www.w3.org/2000/svg"><g><g><path d="m374.413 320.25c-.909 0-1.816-.083-2.71-.247l-291.545-53.555c-19.992 1.813-39.914-4.678-54.997-18.001-15.673-13.843-24.661-33.779-24.661-54.697 0-38.53 30.006-70.184 67.877-72.822 3.629-12.751 10.702-24.341 20.612-33.522 13.53-12.535 31.145-19.438 49.598-19.438 14.554 0 28.673 4.417 40.558 12.347 5.467-10.061 12.888-19.063 21.865-26.365 15.618-12.704 35.325-19.7 55.49-19.7s39.872 6.996 55.49 19.7c8.977 7.302 16.397 16.304 21.865 26.365 11.885-7.93 26.004-12.347 40.558-12.347 18.454 0 36.068 6.903 49.598 19.438 9.912 9.183 16.986 20.775 20.615 33.53 15.867 1.126 31.082 7.411 43.189 18.096 15.688 13.844 24.686 33.789 24.686 54.718 0 20.918-8.989 40.854-24.661 54.697-12.06 10.652-27.213 16.937-43.021 18.102-8.53 31.036-37.107 53.701-70.406 53.701z" fill="#fff4f4"/></g><path d="m487.815 139.032c-12.108-10.685-27.322-16.969-43.189-18.096-3.629-12.755-10.703-24.348-20.615-33.53-13.53-12.535-31.145-19.438-49.598-19.438-14.554 0-28.673 4.417-40.558 12.347-5.467-10.061-12.888-19.063-21.865-26.365-15.618-12.704-35.325-19.7-55.49-19.7v264.591l115.203 21.162c.894.165 1.801.247 2.71.247 33.3 0 61.876-22.666 70.406-53.701 15.808-1.165 30.96-7.45 43.021-18.102 15.672-13.843 24.661-33.779 24.661-54.697-.001-20.929-8.998-40.874-24.686-54.718z" fill="#f6efea"/><g><path d="m403.474 478.25h-134.152c-20.678 0-37.5-16.822-37.5-37.5 0-7.899 2.486-15.35 6.8-21.5h-201.122c-20.678 0-37.5-16.822-37.5-37.5 0-20.677 16.822-37.5 37.5-37.5h94.017c-4.718-6.271-7.518-14.065-7.518-22.5 0-8.293 2.8-16.07 7.525-22.368h-44.024c-20.677 0-37.5-16.822-37.5-37.5s16.822-37.5 37.5-37.5h226c20.678 0 37.5 16.822 37.5 37.5 0 8.293-2.8 16.07-7.525 22.368h131.025c20.678 0 37.5 16.822 37.5 37.5s-16.822 37.5-37.5 37.5h-125.865c4.718 6.271 7.518 14.065 7.518 22.5 0 7.899-2.486 15.351-6.8 21.5h54.122c20.678 0 37.5 16.822 37.5 37.5-.001 20.678-16.823 37.5-37.501 37.5z" fill="#f6efea"/></g><path d="m474.5 284.251h-131.024c4.725-6.298 7.525-14.074 7.525-22.368 0-20.678-16.822-37.5-37.5-37.5h-57v251.608c4.002 1.461 8.32 2.259 12.822 2.259h134.152c20.678 0 37.5-16.822 37.5-37.5 0-20.677-16.822-37.5-37.5-37.5h-54.122c4.314-6.15 6.8-13.601 6.8-21.5 0-8.434-2.8-16.228-7.518-22.5h125.865c20.678 0 37.5-16.822 37.5-37.5s-16.822-37.499-37.5-37.499z" fill="#eee1dc"/></g></svg>