<svg id="Layer_1" enable-background="new 0 0 512 512" height="512" viewBox="0 0 512 512" width="512" xmlns="http://www.w3.org/2000/svg"><g><g><path d="m255.939 512c-141.159 0-171-114.841-171-256s29.841-256 171-256 256 114.841 256 256-114.842 256-256 256z" fill="#fff4f4"/></g><path d="m255.939 0v512c141.159 0 256-114.841 256-256s-114.842-256-256-256z" fill="#f6efea"/><g clip-rule="evenodd" fill-rule="evenodd"><circle cx="195.938" cy="262" fill="#f6efea" r="60"/><path d="m319.014 7.871c-20.185-5.134-41.316-7.871-63.075-7.871-127.548 0-233.597 93.765-252.865 215.983-1.982 13.05-3.013 26.413-3.013 40.017 0 13.603 1.03 26.966 3.012 40.016 19.268 122.219 125.318 215.984 252.866 215.984 21.76 0 42.89-2.738 63.075-7.871-101.019-37.156-173.083-134.219-173.083-248.129s72.064-210.973 173.083-248.129z" fill="#fdbf00"/><circle cx="392.439" cy="97.5" fill="#eee1dc" r="30"/><ellipse cx="412.63" cy="363.114" fill="#e6e6e6" rx="30" ry="30" transform="matrix(.383 -.924 .924 .383 -80.75 605.377)"/><g fill="#ff8856"><path d="m255.939 0v41.411c19.249-13.864 40.431-25.211 63.075-33.54-20.185-5.134-41.316-7.871-63.075-7.871z"/><path d="m255.939 512c21.76 0 42.89-2.738 63.075-7.871-22.644-8.329-43.826-19.676-63.075-33.54z"/></g></g></g></svg>