<svg id="Layer_1" enable-background="new 0 0 512 512" height="512" viewBox="0 0 512 512" width="512" xmlns="http://www.w3.org/2000/svg"><g><g><path d="m364.883 225.772c-3.254 0-6.518-.134-9.788-.406-31.216-2.591-59.554-17.182-79.795-41.087-20.241-23.904-29.961-54.26-27.37-85.476 3.545-42.72 30.104-80.084 69.314-97.511 5.04-2.239 10.903-1.534 15.267 1.84 4.363 3.374 6.523 8.87 5.624 14.312-4.029 24.391 2.104 48.541 17.273 68 15.148 19.434 37.022 31.26 61.59 33.298 14.586 1.211 29.306-1.27 42.583-7.171 5.04-2.239 10.903-1.533 15.267 1.84 4.363 3.374 6.523 8.87 5.625 14.312-4.786 28.975-20.195 54.938-43.388 73.107-20.744 16.251-46.07 24.941-72.202 24.942z" fill="#fdbf00"/></g><g><path d="m231.581 362.994c-16.2 0-32.053-5.595-44.639-15.753-6.253-5.047-11.583-11.118-15.784-17.879-9.06 5.33-19.488 8.265-30.216 8.265-26.344 0-49.066-17.379-56.778-41.515-12.029-1.377-23.478-6.395-32.709-14.548-12.792-11.299-20.129-27.572-20.129-44.646 0-30.635 23.237-55.944 53.013-59.224 3.126-9.504 8.63-18.128 16.119-25.067 11.044-10.232 25.422-15.867 40.484-15.867 10.622 0 20.961 2.884 29.966 8.121 4.19-6.849 9.536-13 15.828-18.118 12.622-10.267 28.549-15.921 44.845-15.921s32.222 5.654 44.844 15.921c6.293 5.118 11.638 11.27 15.828 18.118 9.005-5.237 19.344-8.121 29.967-8.121 15.063 0 29.439 5.635 40.483 15.867 7.492 6.941 12.997 15.569 16.123 25.077 12.082 1.348 23.588 6.369 32.86 14.551 12.806 11.3 20.149 27.58 20.149 44.663 0 17.074-7.337 33.347-20.13 44.646-9.23 8.152-20.68 13.17-32.708 14.548-7.712 24.137-30.434 41.515-56.778 41.515-10.727 0-21.156-2.936-30.217-8.265-4.2 6.761-9.531 12.832-15.784 17.879-12.586 10.159-28.438 15.753-44.637 15.753z" fill="#fff4f4"/></g><g><path d="m231.581 512c-20.678 0-37.501-16.822-37.501-37.5 0-10.716 8.052-27.576 14.807-39.833 15.247-27.667 19.552-27.667 22.694-27.667s7.446 0 22.693 27.667c6.755 12.257 14.807 29.117 14.807 39.833 0 20.677-16.823 37.5-37.5 37.5z" fill="#fff4f4"/></g><g><path d="m102.983 466c-20.678 0-37.5-16.822-37.5-37.5 0-10.716 8.052-27.576 14.807-39.833 15.247-27.667 19.55-27.667 22.693-27.667s7.446 0 22.693 27.667c6.755 12.257 14.807 29.117 14.807 39.833 0 20.678-16.822 37.5-37.5 37.5z" fill="#fff4f4"/></g><path d="m474.848 113.412c-4.363-3.373-10.227-4.079-15.267-1.84-13.277 5.901-27.997 8.382-42.583 7.171-20.019-1.661-38.249-9.823-52.51-23.303v130.323c.131 0 .263.008.394.008 26.132 0 51.458-8.69 72.202-24.94 23.192-18.169 38.602-44.133 43.388-73.107.9-5.442-1.261-10.938-5.624-14.312z" fill="#ff8856"/><g><path d="m360.178 466c-20.678 0-37.5-16.822-37.5-37.5 0-10.716 8.052-27.576 14.807-39.833 15.247-27.667 19.551-27.667 22.693-27.667s7.446 0 22.693 27.667c6.755 12.257 14.807 29.117 14.807 39.833 0 20.678-16.822 37.5-37.5 37.5z" fill="#f6efea"/></g><g fill="#f6efea"><path d="m411.686 192.255c-9.272-8.183-20.778-13.204-32.86-14.551-3.126-9.508-8.631-18.136-16.123-25.077-11.044-10.232-25.421-15.867-40.483-15.867-10.623 0-20.962 2.884-29.967 8.121-4.19-6.849-9.535-13-15.828-18.118-12.622-10.267-28.548-15.921-44.844-15.921v252.152c16.199 0 32.052-5.595 44.638-15.753 6.253-5.047 11.584-11.118 15.784-17.879 9.061 5.329 19.49 8.265 30.217 8.265 26.345 0 49.066-17.378 56.778-41.515 12.028-1.377 23.478-6.396 32.708-14.548 12.793-11.299 20.13-27.572 20.13-44.646 0-17.083-7.344-33.363-20.15-44.663z"/><path d="m254.274 434.667c-15.247-27.667-19.551-27.667-22.693-27.667v105c20.678 0 37.5-16.822 37.5-37.5 0-10.717-8.052-27.576-14.807-39.833z"/></g></g></svg>