<svg id="Layer_1" enable-background="new 0 0 512 512" height="512" viewBox="0 0 512 512" width="512" xmlns="http://www.w3.org/2000/svg"><g><g><path d="m371.151 332.26c-11.944 0-23.947-1.451-35.768-4.386-38.362-9.524-70.72-33.418-91.111-67.279-20.392-33.861-26.377-73.636-16.853-111.999 13.035-52.502 53.659-93.689 106.02-107.489 5.034-1.325 10.39.217 13.946 4.018 3.556 3.802 4.739 9.248 3.08 14.182-10.801 32.13-7.791 66.162 8.477 95.828 16.247 29.629 43.264 50.432 76.074 58.578 19.47 4.835 39.948 4.704 59.22-.375 5.03-1.328 10.389.216 13.945 4.017s4.74 9.247 3.081 14.181c-11.806 35.125-36.238 64.358-68.796 82.313-22.082 12.181-46.571 18.411-71.315 18.411z" fill="#fdbf00"/></g><path d="m508.181 217.357c-3.557-3.802-8.915-5.345-13.945-4.017-19.272 5.079-39.749 5.209-59.22.375-27.589-6.849-51.078-22.65-67.516-45.119v163.609c1.217.03 2.435.056 3.651.055 24.744 0 49.232-6.23 71.315-18.408 32.558-17.955 56.99-47.188 68.796-82.313 1.659-4.935.475-10.381-3.081-14.182z" fill="#ff8856"/><g><path d="m223 471.36c-17.769 0-35.158-6.136-48.962-17.279-7.337-5.922-13.516-13.127-18.258-21.17-10.245 6.414-22.217 9.968-34.547 9.968-29.18 0-54.29-19.527-62.349-46.475-13.568-1.301-26.522-6.839-36.905-16.01-13.968-12.338-21.979-30.106-21.979-48.748 0-33.854 25.991-61.752 59.068-64.785 3.341-10.824 9.488-20.653 17.963-28.504 12.058-11.171 27.756-17.324 44.202-17.324 12.218 0 24.091 3.493 34.282 9.805 4.726-8.142 10.918-15.44 18.297-21.443 13.845-11.261 31.313-17.463 49.188-17.463s35.343 6.202 49.188 17.463c7.379 6.002 13.572 13.301 18.297 21.442 10.189-6.311 22.065-9.805 34.282-9.805 16.446 0 32.145 6.152 44.203 17.324 8.478 7.854 14.625 17.685 17.965 28.514 13.625 1.268 26.638 6.808 37.065 16.009 13.981 12.338 22 30.112 22 48.766 0 18.642-8.011 36.41-21.979 48.747-10.382 9.17-23.337 14.708-36.905 16.01-8.059 26.948-33.169 46.475-62.349 46.475-12.331 0-24.302-3.553-34.547-9.968-4.742 8.043-10.921 15.249-18.258 21.17-13.805 11.145-31.193 17.281-48.962 17.281z" fill="#fff4f4"/></g><path d="m424 282.88c-10.427-9.202-23.44-14.741-37.065-16.009-3.34-10.829-9.488-20.66-17.965-28.514-12.058-11.171-27.756-17.324-44.203-17.324-12.217 0-24.092 3.494-34.282 9.805-4.726-8.141-10.918-15.44-18.297-21.442-13.845-11.261-31.313-17.463-49.188-17.463v279.427c17.769 0 35.157-6.136 48.962-17.279 7.337-5.922 13.516-13.127 18.258-21.17 10.245 6.415 22.217 9.968 34.547 9.968 29.18 0 54.29-19.527 62.349-46.475 13.567-1.302 26.523-6.84 36.905-16.01 13.968-12.338 21.979-30.106 21.979-48.748 0-18.653-8.019-36.428-22-48.766z" fill="#f6efea"/></g></svg>