<svg id="Layer_1" enable-background="new 0 0 512.001 512.001" height="512" viewBox="0 0 512.001 512.001" width="512" xmlns="http://www.w3.org/2000/svg"><g><g><path d="m256 321.004c-20.046 0-39.663-6.922-55.235-19.492-8.929-7.207-16.338-16.1-21.833-26.045-11.941 8.049-26.166 12.537-40.845 12.537-33.302 0-61.878-22.662-70.406-53.701-15.809-1.165-30.959-7.449-43.02-18.102-15.672-13.843-24.661-33.78-24.661-54.698 0-38.53 30.006-70.184 67.877-72.822 3.63-12.751 10.703-24.341 20.612-33.521 13.53-12.535 31.145-19.438 49.598-19.438 14.554 0 28.673 4.418 40.559 12.347 5.467-10.061 12.887-19.063 21.864-26.365 15.618-12.704 35.325-19.701 55.49-19.701s39.872 6.997 55.49 19.7c8.977 7.302 16.397 16.304 21.865 26.365 11.885-7.929 26.004-12.347 40.558-12.347 18.454 0 36.068 6.903 49.598 19.438 9.912 9.183 16.985 20.774 20.614 33.53 15.868 1.126 31.082 7.411 43.19 18.095 15.688 13.844 24.686 33.788 24.686 54.718 0 20.918-8.989 40.854-24.661 54.697-12.06 10.652-27.213 16.937-43.021 18.102-8.528 31.039-37.104 53.701-70.406 53.701-14.679 0-28.904-4.488-40.845-12.537-5.494 9.945-12.903 18.838-21.832 26.045-15.573 12.572-35.189 19.494-55.236 19.494z" fill="#fff4f4"/></g><path d="m487.315 106.785c-12.108-10.685-27.322-16.969-43.19-18.095-3.629-12.756-10.703-24.348-20.614-33.53-13.53-12.535-31.145-19.438-49.598-19.438-14.554 0-28.673 4.418-40.558 12.347-5.467-10.061-12.888-19.063-21.865-26.365-15.618-12.704-35.324-19.701-55.49-19.701v319c20.046 0 39.663-6.922 55.235-19.492 8.929-7.207 16.338-16.1 21.832-26.045 11.941 8.049 26.166 12.537 40.845 12.537 33.302 0 61.878-22.662 70.406-53.701 15.808-1.165 30.96-7.45 43.021-18.102 15.672-13.843 24.661-33.779 24.661-54.697.001-20.93-8.997-40.874-24.685-54.718z" fill="#f6efea"/><g><path d="m231.025 509.998c-1.78 0-3.58-.317-5.317-.977-6.25-2.371-10.176-8.592-9.628-15.254l9.079-110.368-74.157-20.961c-4.816-1.361-8.636-5.035-10.184-9.794s-.621-9.977 2.473-13.911l158.019-200.981c4.425-5.629 12.211-7.346 18.593-4.099 6.381 3.246 9.579 10.549 7.636 17.44l-38.091 135.094 76.073 19.941c4.831 1.267 8.714 4.854 10.359 9.57 1.645 4.715.835 9.94-2.161 13.936l-130.688 174.359c-2.894 3.862-7.382 6.005-12.006 6.005z" fill="#fdbf00"/></g><path d="m375.879 315.698c-1.645-4.716-5.529-8.303-10.359-9.57l-76.073-19.941 38.091-135.094c1.943-6.891-1.255-14.194-7.636-17.44-6.382-3.248-14.167-1.53-18.593 4.099l-45.309 57.626v291.312l117.718-157.055c2.996-3.997 3.806-9.221 2.161-13.937z" fill="#ff8856"/></g></svg>