<svg id="Layer_1" enable-background="new 0 0 512 512" height="512" viewBox="0 0 512 512" width="512" xmlns="http://www.w3.org/2000/svg"><g><g><path d="m316.173 270.563c-51.314 0-93.292-41.502-93.764-92.921-.475-51.709 41.207-94.163 92.916-94.638.29-.002.585-.004.875-.004 51.313 0 93.291 41.502 93.763 92.92.475 51.709-41.207 94.164-92.916 94.639-.29.003-.585.004-.874.004z" fill="#fdbf00"/></g><path d="m316.201 83v187.563c.28 0 .566-.001.847-.004 51.709-.475 93.391-42.93 92.916-94.639-.472-51.418-42.45-92.92-93.763-92.92z" fill="#ff8856"/><g><path d="m316.357 64.667c-8.221 0-14.921-6.625-14.996-14.862l-.318-34.667c-.077-8.284 6.577-15.061 14.861-15.138h.141c8.221 0 14.921 6.625 14.996 14.862l.318 34.667c.076 8.284-6.577 15.061-14.861 15.137-.047.001-.094.001-.141.001z" fill="#fdbf00"/></g><g><path d="m445.17 190.614c-8.221 0-14.921-6.625-14.996-14.862-.076-8.284 6.577-15.061 14.861-15.137l34.667-.318c8.247-.059 15.061 6.578 15.137 14.862s-6.577 15.061-14.861 15.137l-34.667.318c-.048 0-.094 0-.141 0z" fill="#ff8856"/></g><g><path d="m407.116 101.073c-3.793 0-7.587-1.429-10.508-4.296-5.911-5.804-5.999-15.301-.195-21.212l24.288-24.739c5.806-5.91 15.301-5.998 21.213-.195 5.911 5.804 5.999 15.301.195 21.212l-24.288 24.739c-2.937 2.991-6.82 4.491-10.705 4.491z" fill="#ff8856"/></g><g><path d="m227.349 102.723c-3.793 0-7.588-1.429-10.508-4.296l-24.738-24.289c-5.911-5.804-5.998-15.301-.194-21.212 5.805-5.912 15.302-5.999 21.212-.195l24.738 24.289c5.911 5.804 5.998 15.301.194 21.212-2.936 2.991-6.819 4.491-10.704 4.491z" fill="#fdbf00"/></g><g><path d="m365.759 73.957c-1.875 0-3.779-.354-5.624-1.1-7.679-3.109-11.384-11.854-8.274-19.533l13.01-32.135c3.108-7.679 11.855-11.382 19.532-8.275 7.679 3.109 11.384 11.854 8.274 19.533l-13.01 32.135c-2.362 5.834-7.979 9.375-13.908 9.375z" fill="#ff8856"/></g><g><path d="m468.017 252.5c-1.875 0-3.78-.354-5.624-1.1l-32.135-13.01c-7.679-3.109-11.384-11.854-8.274-19.533 3.109-7.68 11.857-11.383 19.532-8.275l32.135 13.01c7.679 3.109 11.384 11.854 8.274 19.533-2.362 5.834-7.978 9.375-13.908 9.375z" fill="#ff8856"/></g><g><path d="m435.115 142.2c-5.843 0-11.396-3.434-13.818-9.153-3.231-7.628.332-16.431 7.961-19.663l31.923-13.523c7.628-3.234 16.431.333 19.662 7.96 3.231 7.628-.332 16.431-7.96 19.663l-31.924 13.523c-1.909.809-3.894 1.193-5.844 1.193z" fill="#ff8856"/></g><g><path d="m268.48 74.735c-5.843 0-11.396-3.434-13.818-9.153l-13.524-31.922c-3.231-7.628.332-16.431 7.96-19.663 7.634-3.233 16.432.333 19.663 7.96l13.523 31.922c3.231 7.628-.332 16.431-7.96 19.663-1.909.81-3.894 1.193-5.844 1.193z" fill="#fdbf00"/></g><g><path d="m209.743 358.558c-15.67 0-31.005-5.412-43.18-15.238-5.891-4.754-10.935-10.448-14.947-16.783-8.657 4.972-18.568 7.705-28.758 7.705-25.39 0-47.307-16.656-54.896-39.847-11.51-1.399-22.454-6.24-31.296-14.05-12.396-10.949-19.506-26.718-19.506-43.263 0-29.549 22.312-53.985 50.974-57.343 3.05-9.061 8.336-17.281 15.494-23.913 10.702-9.914 24.634-15.375 39.229-15.375 10.088 0 19.911 2.684 28.514 7.567 4.004-6.418 9.063-12.189 14.992-17.012 12.21-9.932 27.616-15.401 43.379-15.401 15.764 0 31.169 5.47 43.379 15.401 5.93 4.823 10.988 10.593 14.993 17.012 8.602-4.884 18.426-7.567 28.513-7.567 14.596 0 28.527 5.46 39.229 15.375 7.16 6.634 12.448 14.858 15.497 23.922 11.563 1.371 22.563 6.215 31.446 14.055 12.409 10.95 19.525 26.725 19.525 43.279 0 16.545-7.11 32.313-19.507 43.263-8.842 7.81-19.786 12.651-31.296 14.05-7.589 23.191-29.506 39.847-54.896 39.847-10.189 0-20.101-2.733-28.758-7.705-4.012 6.335-9.057 12.028-14.947 16.783-12.171 9.826-27.506 15.238-43.177 15.238z" fill="#fff4f4"/></g><g><g><path d="m209.743 512c-20.678 0-37.5-16.822-37.5-37.5 0-10.716 8.052-27.577 14.807-39.833 15.246-27.667 19.55-27.667 22.693-27.667s7.446 0 22.693 27.667c6.755 12.257 14.807 29.117 14.807 39.833 0 20.678-16.823 37.5-37.5 37.5z" fill="#fff4f4"/></g></g><g><g><path d="m81.145 466.864c-20.678 0-37.5-16.822-37.5-37.5 0-10.716 8.052-27.577 14.807-39.833 15.247-27.667 19.551-27.667 22.693-27.667s7.447 0 22.694 27.667c6.755 12.257 14.807 29.117 14.807 39.833 0 20.678-16.823 37.5-37.501 37.5z" fill="#fff4f4"/></g></g><g><g><path d="m338.34 466.864c-20.678 0-37.5-16.822-37.5-37.5 0-10.716 8.052-27.577 14.807-39.833 15.247-27.667 19.551-27.667 22.693-27.667s7.446 0 22.693 27.667c6.755 12.257 14.807 29.117 14.807 39.833 0 20.678-16.822 37.5-37.5 37.5z" fill="#f6efea"/></g></g><path d="m382.8 193.803c-8.884-7.839-19.883-12.684-31.446-14.055-3.049-9.064-8.337-17.289-15.497-23.922-10.702-9.914-24.634-15.375-39.229-15.375-10.087 0-19.911 2.684-28.513 7.567-4.005-6.418-9.063-12.189-14.993-17.012-12.21-9.932-27.615-15.401-43.379-15.401v242.952c15.671 0 31.006-5.412 43.18-15.238 5.891-4.755 10.936-10.448 14.947-16.783 8.657 4.972 18.568 7.705 28.758 7.705 25.39 0 47.307-16.656 54.896-39.847 11.51-1.399 22.454-6.24 31.296-14.05 12.396-10.949 19.507-26.718 19.507-43.263-.001-16.554-7.117-32.328-19.527-43.278z" fill="#f6efea"/><path d="m232.436 434.667c-15.247-27.667-19.551-27.667-22.693-27.667v105c20.678 0 37.5-16.822 37.5-37.5 0-10.716-8.052-27.577-14.807-39.833z" fill="#f6efea"/><path d="m331.041 14.862c-.075-8.184-6.691-14.77-14.84-14.854v64.651c.053 0 .104.008.156.008h.141c8.284-.076 14.938-6.854 14.861-15.137z" fill="#ff8856"/></g></svg>