<svg id="Layer_1" enable-background="new 0 0 512 512" height="512" viewBox="0 0 512 512" width="512" xmlns="http://www.w3.org/2000/svg"><g><g><path d="m307.484 339.284c-61.557.002-111.915-49.786-112.482-111.469-.569-62.031 49.434-112.961 111.464-113.531.349-.003.701-.004 1.049-.004 61.558 0 111.916 49.787 112.481 111.469.569 62.031-49.433 112.961-111.464 113.53-.347.004-.7.005-1.048.005z" fill="#fdbf00"/></g><path d="m307.516 114.28c-.005 0-.011 0-.016 0v225.004c.343 0 .69-.001 1.033-.004 62.031-.569 112.033-51.499 111.464-113.53-.565-61.683-50.924-111.47-112.481-111.47z" fill="#ff8856"/><g><path d="m307.939 92.896c-8.221 0-14.921-6.625-14.996-14.862l-.373-40.605c-.076-8.284 6.577-15.061 14.861-15.137h.141c8.221 0 14.921 6.625 14.996 14.862l.373 40.605c.076 8.284-6.577 15.061-14.861 15.137-.046 0-.094 0-.141 0z" fill="#fdbf00"/></g><g><path d="m456.392 240.416c-8.221 0-14.921-6.625-14.996-14.862-.076-8.284 6.577-15.061 14.861-15.137l40.605-.373h.141c8.221 0 14.921 6.625 14.996 14.862.076 8.284-6.577 15.061-14.861 15.137l-40.605.373c-.047-.001-.094 0-.141 0z" fill="#ff8856"/></g><g><path d="m413.62 135.537c-3.793 0-7.587-1.429-10.508-4.296-5.911-5.804-5.999-15.301-.194-21.212l28.447-28.976c5.806-5.911 15.301-5.999 21.213-.195 5.911 5.804 5.999 15.301.195 21.212l-28.449 28.976c-2.936 2.991-6.819 4.491-10.704 4.491z" fill="#ff8856"/></g><g><path d="m203.062 137.47c-3.793 0-7.587-1.429-10.508-4.296l-28.976-28.449c-5.911-5.804-5.999-15.301-.195-21.212s15.301-5.999 21.212-.195l28.976 28.449c5.911 5.804 5.999 15.301.195 21.212-2.936 2.991-6.819 4.491-10.704 4.491z" fill="#fdbf00"/></g><g><path d="m365.18 103.775c-1.875 0-3.78-.354-5.624-1.1-7.679-3.109-11.384-11.854-8.274-19.533l15.238-37.639c3.108-7.679 11.857-11.382 19.532-8.275 7.679 3.109 11.384 11.854 8.274 19.533l-15.238 37.639c-2.362 5.834-7.979 9.375-13.908 9.375z" fill="#ff8856"/></g><g><path d="m484.954 312.9c-1.875 0-3.78-.354-5.624-1.1l-37.639-15.238c-7.679-3.109-11.384-11.854-8.274-19.533 3.109-7.68 11.859-11.383 19.532-8.275l37.639 15.238c7.679 3.109 11.384 11.854 8.274 19.533-2.362 5.835-7.978 9.375-13.908 9.375z" fill="#ff8856"/></g><g><path d="m171.292 185.911c-1.875 0-3.78-.354-5.624-1.1l-37.639-15.239c-7.679-3.109-11.384-11.854-8.275-19.533 3.109-7.68 11.855-11.383 19.533-8.275l37.639 15.239c7.679 3.109 11.384 11.854 8.275 19.533-2.362 5.835-7.979 9.375-13.909 9.375z" fill="#fdbf00"/></g><g><path d="m446.414 183.708c-5.843 0-11.396-3.434-13.818-9.153-3.231-7.628.333-16.432 7.961-19.663l37.391-15.839c7.628-3.232 16.432.333 19.662 7.961 3.231 7.628-.333 16.432-7.961 19.663l-37.391 15.839c-1.909.808-3.894 1.192-5.844 1.192z" fill="#ff8856"/></g><g><path d="m251.237 104.687c-5.843 0-11.396-3.434-13.818-9.153l-15.84-37.39c-3.231-7.628.333-16.431 7.96-19.663 7.627-3.233 16.432.333 19.663 7.96l15.84 37.39c3.231 7.628-.333 16.431-7.961 19.663-1.909.81-3.894 1.193-5.844 1.193z" fill="#fdbf00"/></g><g><path d="m223 489.71c-17.769 0-35.158-6.136-48.962-17.279-7.337-5.922-13.516-13.127-18.258-21.17-10.245 6.414-22.217 9.968-34.547 9.968-29.18 0-54.29-19.527-62.349-46.475-13.568-1.301-26.522-6.839-36.905-16.01-13.968-12.338-21.979-30.106-21.979-48.748 0-33.854 25.991-61.752 59.068-64.785 3.341-10.824 9.488-20.653 17.963-28.504 12.058-11.171 27.756-17.324 44.202-17.324 12.218 0 24.091 3.493 34.282 9.805 4.726-8.142 10.918-15.44 18.297-21.443 13.845-11.261 31.313-17.463 49.188-17.463s35.343 6.202 49.188 17.463c7.379 6.002 13.572 13.301 18.297 21.442 10.189-6.311 22.065-9.805 34.282-9.805 16.446 0 32.145 6.152 44.203 17.324 8.478 7.854 14.625 17.685 17.965 28.514 13.625 1.268 26.638 6.808 37.065 16.009 13.981 12.338 22 30.112 22 48.766 0 18.642-8.011 36.41-21.979 48.747-10.382 9.17-23.337 14.708-36.905 16.01-8.059 26.948-33.169 46.475-62.349 46.475-12.331 0-24.302-3.553-34.547-9.968-4.742 8.043-10.921 15.249-18.258 21.17-13.805 11.145-31.193 17.281-48.962 17.281z" fill="#fff4f4"/></g><path d="m424 301.23c-10.427-9.202-23.44-14.741-37.065-16.009-3.34-10.829-9.488-20.66-17.965-28.514-12.058-11.171-27.756-17.324-44.203-17.324-12.217 0-24.092 3.494-34.282 9.805-4.726-8.141-10.918-15.44-18.297-21.442-13.845-11.261-31.313-17.463-49.188-17.463v279.427c17.769 0 35.157-6.136 48.962-17.279 7.337-5.922 13.516-13.127 18.258-21.17 10.245 6.415 22.217 9.968 34.547 9.968 29.18 0 54.29-19.527 62.349-46.475 13.567-1.302 26.523-6.84 36.905-16.01 13.968-12.338 21.979-30.106 21.979-48.748 0-18.653-8.019-36.428-22-48.766z" fill="#f6efea"/><path d="m322.568 37.152c-.075-8.237-6.775-14.862-14.996-14.862-.024 0-.048 0-.072 0v70.583c.147.004.291.022.44.022h.141c8.284-.076 14.938-6.854 14.861-15.137z" fill="#ff8856"/></g></svg>