<?xml version="1.0"?>
<svg xmlns="http://www.w3.org/2000/svg" xmlns:xlink="http://www.w3.org/1999/xlink" xmlns:svgjs="http://svgjs.com/svgjs" version="1.1" width="512" height="512" x="0" y="0" viewBox="0 0 512 512" style="enable-background:new 0 0 512 512" xml:space="preserve" class=""><g>
<g xmlns="http://www.w3.org/2000/svg">
	<g>
		<g>
			<path d="M437.02,75.112C388.667,26.76,324.38,0.133,256,0.133c-41.218,0-82.189,10.033-118.485,29.016     C116.586,40.094,97.191,54.029,80,70.302V0.133H40v140h140v-40h-73.338c39.887-38.075,93.411-60,149.338-60     c119.102,0,216,96.896,216,215.999c-0.001,6.632-0.304,13.317-0.901,19.87l39.836,3.628c0.706-7.753,1.064-15.658,1.065-23.495     l-20-0.002h20C512,187.752,485.371,123.466,437.02,75.112z" fill="#ffffff" data-original="#000000" style=""/>
			<polygon points="512,256.132 512,256.132 512,256.133    " fill="#ffffff" data-original="#000000" style=""/>
		</g>
	</g>
</g>
<g xmlns="http://www.w3.org/2000/svg">
	<g>
		<path d="M87.724,391.566l-31.145,25.101c9.048,11.226,19.114,21.762,29.92,31.315l26.494-29.967    C103.867,409.946,95.365,401.049,87.724,391.566z" fill="#ffffff" data-original="#000000" style=""/>
	</g>
</g>
<g xmlns="http://www.w3.org/2000/svg">
	<g>
		<path d="M52.219,327.943l-37.727,13.296c4.794,13.601,10.796,26.896,17.842,39.517l34.926-19.497    C61.319,350.617,56.259,339.407,52.219,327.943z" fill="#ffffff" data-original="#000000" style=""/>
	</g>
</g>
<g xmlns="http://www.w3.org/2000/svg">
	<g>
		<path d="M40,256.133H0c0,14.47,1.22,28.986,3.624,43.145l39.436-6.698C41.029,280.627,40,268.365,40,256.133z" fill="#ffffff" data-original="#000000" style=""/>
	</g>
</g>
<g xmlns="http://www.w3.org/2000/svg">
	<g>
		<path d="M142.33,439.841l-21.082,33.993c12.271,7.611,25.265,14.215,38.618,19.629l15.029-37.069    C163.637,451.831,152.68,446.26,142.33,439.841z" fill="#ffffff" data-original="#000000" style=""/>
	</g>
</g>
<g xmlns="http://www.w3.org/2000/svg">
	<g>
		<path d="M464.717,311.981c-3.137,11.748-7.307,23.311-12.395,34.365l36.335,16.727c6.037-13.115,10.985-26.835,14.706-40.777    L464.717,311.981z" fill="#ffffff" data-original="#000000" style=""/>
	</g>
</g>
<g xmlns="http://www.w3.org/2000/svg">
	<g>
		<path d="M383.554,430.468c-9.833,7.208-20.335,13.616-31.213,19.047l17.867,35.788c12.896-6.438,25.342-14.033,36.994-22.574    L383.554,430.468z" fill="#ffffff" data-original="#000000" style=""/>
	</g>
</g>
<g xmlns="http://www.w3.org/2000/svg">
	<g>
		<path d="M434.282,378.123c-6.883,10.035-14.672,19.56-23.152,28.311l28.725,27.837c10.041-10.361,19.265-21.642,27.415-33.527    L434.282,378.123z" fill="#ffffff" data-original="#000000" style=""/>
	</g>
</g>
<g xmlns="http://www.w3.org/2000/svg">
	<g>
		<path d="M318.37,462.995c-11.632,3.503-23.662,6.03-35.756,7.515l4.873,39.702c14.343-1.761,28.612-4.76,42.412-8.914    L318.37,462.995z" fill="#ffffff" data-original="#000000" style=""/>
	</g>
</g>
<g xmlns="http://www.w3.org/2000/svg">
	<g>
		<path d="M209.794,467.185l-8.514,39.083c14.054,3.062,28.505,4.946,42.953,5.6l1.809-39.959    C233.844,471.357,221.648,469.766,209.794,467.185z" fill="#ffffff" data-original="#000000" style=""/>
	</g>
</g>
<g xmlns="http://www.w3.org/2000/svg">
</g>
<g xmlns="http://www.w3.org/2000/svg">
</g>
<g xmlns="http://www.w3.org/2000/svg">
</g>
<g xmlns="http://www.w3.org/2000/svg">
</g>
<g xmlns="http://www.w3.org/2000/svg">
</g>
<g xmlns="http://www.w3.org/2000/svg">
</g>
<g xmlns="http://www.w3.org/2000/svg">
</g>
<g xmlns="http://www.w3.org/2000/svg">
</g>
<g xmlns="http://www.w3.org/2000/svg">
</g>
<g xmlns="http://www.w3.org/2000/svg">
</g>
<g xmlns="http://www.w3.org/2000/svg">
</g>
<g xmlns="http://www.w3.org/2000/svg">
</g>
<g xmlns="http://www.w3.org/2000/svg">
</g>
<g xmlns="http://www.w3.org/2000/svg">
</g>
<g xmlns="http://www.w3.org/2000/svg">
</g>
</g></svg>
